<?xml version="1.0" encoding="utf-8"?>
<!-- Generator: Adobe Illustrator 22.1.0, SVG Export Plug-In . SVG Version: 6.00 Build 0)  -->
<svg version="1.1" id="Group_1_xA0_Image_1_" xmlns="http://www.w3.org/2000/svg" xmlns:xlink="http://www.w3.org/1999/xlink"
	 x="0px" y="0px" viewBox="0 0 586 447" style="enable-background:new 0 0 586 447;" xml:space="preserve">
<g>
	<path d="M392,447c-10,0-20,0-30,0c-8.8-1.3-17.7-2.4-26.4-4c-33.1-6.3-62.6-19.2-84.3-46.3c-1.9-2.4-3.5-2-5.9-1.1
		c-40.4,15.6-81.9,19.4-124.6,11.4C59.5,395.5,16,352.9,3.8,292c-1.7-8.3-2.6-16.7-3.8-25c0-7.3,0-14.7,0-22
		c0.3-0.9,0.7-1.8,0.8-2.7c1.4-10.4,2.2-20.9,4.3-31.1c11.4-55,38.9-100.1,84.6-133.3c33.6-24.4,71.9-36.5,113.2-38.6
		c28.8-1.5,57.3,0.4,84.5,10.9c11.5,4.5,22.4,10.4,33.7,15.8c4.6-5,9.2-10.6,14.5-15.7C363.7,22.9,398.2,8.9,436.5,3
		c7.8-1.2,15.7-2,23.5-3c7,0,14,0,21,0c1.6,0.3,3.1,0.8,4.7,0.9C524,3.9,558.8,15.1,586,44c0,0.3,0,0.7,0,1
		c-12.3,11.2-24.6,22.3-36.9,33.5c-8.7,7.9-17.3,16-26.3,24.3c-7.7-13.2-18.5-21.9-32.3-27c-23.5-8.7-47.4-9.2-71-1.4
		c-22.2,7.3-38.2,21.4-43,45.5c-3.6,17.8,0.9,32.3,17.1,42c4.6,2.7,8.9,6,13.8,8c17.3,6.9,34.5,14,52.1,19.9
		c18.7,6.3,37.1,13,53.3,24.3c18.8,13.1,32.3,30.2,37.7,52.8c3.6,15.1,2.4,30.4,0.4,45.7c-4.4,34.7-19.2,64.1-44.8,88
		c-24.7,23.1-54.4,36-87.3,42.3C410,444.6,401,445.6,392,447z M314.3,200.2c-0.4-4.6-0.5-9.9-1.3-15.2
		c-5.6-38.3-24.5-67.5-61.6-81.1c-43.6-16-85.8-9.6-122.5,18.2c-49.7,37.6-68.7,89.1-58.3,150.3c7.2,42.6,37,71.9,78.1,79.3
		c36.6,6.5,70.7-0.7,101-22.3C293.6,298,312.2,253.6,314.3,200.2z M375.2,243.6c-9.5,40.7-28.2,74.5-56,103.7c2.4,2.6,4.4,5,6.7,7.1
		c28.9,27,76.1,31.7,112.1,11c18-10.3,29.9-25.1,32.7-46.3c2.1-16-1.5-29.9-15.4-39.6c-5.7-4-11.3-8.5-17.7-11.2
		C417.3,259.7,396.6,252,375.2,243.6z"/>
</g>
</svg>
